<svg width="21" height="20" viewBox="0 0 21 20" fill="none" xmlns="http://www.w3.org/2000/svg">
<path d="M4 19C2.9 19 1.95833 18.6083 1.175 17.825C0.391667 17.0417 0 16.1 0 15C0 13.9 0.391667 12.9583 1.175 12.175C1.95833 11.3917 2.9 11 4 11C4.8 11 5.5375 11.2167 6.2125 11.65C6.8875 12.0833 7.375 12.675 7.675 13.425L7.925 14H8.525C9.225 14 9.8125 14.2417 10.2875 14.725C10.7625 15.2083 11 15.8 11 16.5C11 17.2 10.7583 17.7917 10.275 18.275C9.79167 18.7583 9.2 19 8.5 19H4ZM12.975 16.2C12.9083 15.15 12.5292 14.2417 11.8375 13.475C11.1458 12.7083 10.275 12.2333 9.225 12.05C8.70833 11.15 8.0125 10.4375 7.1375 9.9125C6.2625 9.3875 5.3 9.08333 4.25 9C4.68333 7.78333 5.425 6.8125 6.475 6.0875C7.525 5.3625 8.7 5 10 5C11.6667 5 13.0833 5.58333 14.25 6.75C15.4167 7.91667 16 9.33333 16 11C16 12.0833 15.7333 13.0875 15.2 14.0125C14.6667 14.9375 13.925 15.6667 12.975 16.2ZM9 4V0H11V4H9ZM15.65 6.75L14.25 5.35L17.05 2.5L18.475 3.925L15.65 6.75ZM17 12V10H21V12H17ZM17.05 19.5L14.25 16.65L15.65 15.25L18.5 18.05L17.05 19.5ZM4.35 6.75L1.525 3.925L2.95 2.5L5.75 5.35L4.35 6.75Z" fill="#00450D"/>
</svg>
