<svg width="27" height="28" viewBox="0 0 27 28" fill="none" xmlns="http://www.w3.org/2000/svg">
<g filter="url(#filter0_d_2_1942)">
<path d="M13.307 19.4447L4.30701 12.4447L5.95701 11.1947L13.307 16.8947L20.657 11.1947L22.307 12.4447L13.307 19.4447V19.4447M13.307 14.3947L4.30701 7.39468L13.307 0.394684L22.307 7.39468L13.307 14.3947V14.3947M13.307 7.39468V7.39468V7.39468V7.39468V7.39468V7.39468M13.307 11.8447L19.057 7.39468L13.307 2.94468L7.55701 7.39468L13.307 11.8447V11.8447" fill="#41493E"/>
<path d="M13.307 19.4447L4.30701 12.4447L5.95701 11.1947L13.307 16.8947L20.657 11.1947L22.307 12.4447L13.307 19.4447V19.4447M13.307 14.3947L4.30701 7.39468L13.307 0.394684L22.307 7.39468L13.307 14.3947V14.3947M13.307 7.39468V7.39468V7.39468V7.39468V7.39468V7.39468M13.307 11.8447L19.057 7.39468L13.307 2.94468L7.55701 7.39468L13.307 11.8447V11.8447" stroke="#00450D" stroke-linejoin="bevel"/>
</g>
<defs>
<filter id="filter0_d_2_1942" x="0" y="0" width="26.614" height="27.8394" filterUnits="userSpaceOnUse" color-interpolation-filters="sRGB">
<feFlood flood-opacity="0" result="BackgroundImageFix"/>
<feColorMatrix in="SourceAlpha" type="matrix" values="0 0 0 0 0 0 0 0 0 0 0 0 0 0 0 0 0 0 127 0" result="hardAlpha"/>
<feOffset dy="4"/>
<feGaussianBlur stdDeviation="2"/>
<feComposite in2="hardAlpha" operator="out"/>
<feColorMatrix type="matrix" values="0 0 0 0 0 0 0 0 0 0 0 0 0 0 0 0 0 0 0.25 0"/>
<feBlend mode="normal" in2="BackgroundImageFix" result="effect1_dropShadow_2_1942"/>
<feBlend mode="normal" in="SourceGraphic" in2="effect1_dropShadow_2_1942" result="shape"/>
</filter>
</defs>
</svg>
