<svg width="16" height="18" viewBox="0 0 16 18" fill="none" xmlns="http://www.w3.org/2000/svg">
<path d="M7.91667 17.9167C6.81944 17.9167 5.79167 17.7083 4.83333 17.2917C3.875 16.875 3.03819 16.309 2.32292 15.5938C1.60764 14.8785 1.04167 14.0417 0.625 13.0833C0.208333 12.125 0 11.0972 0 10C0 8.90278 0.208333 7.875 0.625 6.91667C1.04167 5.95833 1.60764 5.12153 2.32292 4.40625C3.03819 3.69097 3.875 3.125 4.83333 2.70833C5.79167 2.29167 6.81944 2.08333 7.91667 2.08333V0L11.25 3.33333L7.91667 6.66667V4.58333C6.41667 4.58333 5.13889 5.11111 4.08333 6.16667C3.02778 7.22222 2.5 8.5 2.5 10C2.5 10.9167 2.71181 11.7674 3.13542 12.5521C3.55903 13.3368 4.125 13.9722 4.83333 14.4583C5.05556 14.0694 5.38542 13.7396 5.82292 13.4688C6.26042 13.1979 6.76389 13.0278 7.33333 12.9583C7.29167 12.6667 7.23611 12.375 7.16667 12.0833C7.09722 11.7917 7.01389 11.5208 6.91667 11.2708C6.76389 11.3958 6.59722 11.4931 6.41667 11.5625C6.23611 11.6319 6.04167 11.6667 5.83333 11.6667C5.375 11.6667 4.98264 11.5035 4.65625 11.1771C4.32986 10.8507 4.16667 10.4583 4.16667 10V9.16667C4.16667 8.93056 4.12847 8.70833 4.05208 8.5C3.97569 8.29167 3.875 8.09722 3.75 7.91667C4.44444 7.90278 5.0625 7.96528 5.60417 8.10417C6.07639 8.22917 6.50694 8.43403 6.89583 8.71875C7.28472 9.00347 7.48611 9.43056 7.5 10C7.5 10.125 7.48958 10.2396 7.46875 10.3438C7.44792 10.4479 7.40972 10.5556 7.35417 10.6667C7.17361 10.5278 6.99306 10.4028 6.8125 10.2917C6.63194 10.1806 6.44444 10.0833 6.25 10C6.48611 10.1806 6.75694 10.4583 7.0625 10.8333C7.36806 11.2083 7.65278 11.6528 7.91667 12.1667C8.19444 11.4861 8.54167 10.816 8.95833 10.1562C9.375 9.49653 9.86111 8.88889 10.4167 8.33333C10.0972 8.55556 9.79167 8.79167 9.5 9.04167C9.20833 9.29167 8.92361 9.55556 8.64583 9.83333C8.54861 9.68056 8.47222 9.51042 8.41667 9.32292C8.36111 9.13542 8.33333 8.94444 8.33333 8.75C8.33333 8.16667 8.53472 7.67361 8.9375 7.27083C9.34028 6.86806 9.83333 6.66667 10.4167 6.66667H11.25C11.5694 6.66667 11.8333 6.625 12.0417 6.54167C12.25 6.45833 12.4236 6.36111 12.5625 6.25C12.7153 6.125 12.8333 5.98611 12.9167 5.83333C12.9722 6.76389 12.9236 7.59722 12.7708 8.33333C12.6458 8.95833 12.4097 9.53125 12.0625 10.0521C11.7153 10.5729 11.1667 10.8333 10.4167 10.8333C10.2083 10.8333 10.0104 10.8056 9.82292 10.75C9.63542 10.6944 9.46528 10.6181 9.3125 10.5208C9.21528 10.7847 9.10417 11.1354 8.97917 11.5729C8.85417 12.0104 8.75694 12.4792 8.6875 12.9792C9.21528 13.0764 9.68056 13.2569 10.0833 13.5208C10.4861 13.7847 10.7917 14.0972 11 14.4583C11.7083 13.9722 12.2743 13.3403 12.6979 12.5625C13.1215 11.7847 13.3333 10.9306 13.3333 10H15.8333C15.8333 11.0972 15.625 12.125 15.2083 13.0833C14.7917 14.0417 14.2257 14.8785 13.5104 15.5938C12.7951 16.309 11.9583 16.875 11 17.2917C10.0417 17.7083 9.01389 17.9167 7.91667 17.9167Z" fill="#003E63"/>
</svg>
