<svg width="17" height="17" viewBox="0 0 17 17" fill="none" xmlns="http://www.w3.org/2000/svg">
<path d="M8.35417 16.7083C8.13194 16.7083 7.92014 16.6667 7.71875 16.5833C7.51736 16.5 7.33333 16.3819 7.16667 16.2292L0.479167 9.54167C0.326389 9.375 0.208333 9.19097 0.125 8.98958C0.0416667 8.78819 0 8.57639 0 8.35417C0 8.13194 0.0416667 7.91667 0.125 7.70833C0.208333 7.5 0.326389 7.31944 0.479167 7.16667L7.16667 0.479167C7.33333 0.3125 7.51736 0.190972 7.71875 0.114583C7.92014 0.0381944 8.13194 0 8.35417 0C8.57639 0 8.79167 0.0381944 9 0.114583C9.20833 0.190972 9.38889 0.3125 9.54167 0.479167L16.2292 7.16667C16.3958 7.31944 16.5174 7.5 16.5938 7.70833C16.6701 7.91667 16.7083 8.13194 16.7083 8.35417C16.7083 8.57639 16.6701 8.78819 16.5938 8.98958C16.5174 9.19097 16.3958 9.375 16.2292 9.54167L9.54167 16.2292C9.38889 16.3819 9.20833 16.5 9 16.5833C8.79167 16.6667 8.57639 16.7083 8.35417 16.7083ZM8.35417 15.0417L15.0417 8.35417L8.35417 1.66667L1.66667 8.35417L8.35417 15.0417Z" fill="#7A5649"/>
</svg>
