<svg width="32" height="32" viewBox="0 0 32 32" fill="none" xmlns="http://www.w3.org/2000/svg">
<path d="M18.8212 31.3425C18.4275 31.5525 18.0272 31.5853 17.6203 31.4409C17.2134 31.2966 16.905 31.0275 16.695 30.6337L14.3325 25.9087C14.1225 25.515 14.0897 25.1147 14.2341 24.7078C14.3784 24.3009 14.6475 23.9925 15.0412 23.7825C15.435 23.5725 15.8353 23.5397 16.2422 23.6841C16.6491 23.8284 16.9575 24.0975 17.1675 24.4912L19.53 29.2162C19.74 29.61 19.7728 30.0103 19.6284 30.4172C19.4841 30.8241 19.215 31.1325 18.8212 31.3425ZM28.2712 31.3425C27.8775 31.5525 27.4772 31.5853 27.0703 31.4409C26.6634 31.2966 26.355 31.0275 26.145 30.6337L23.7825 25.9087C23.5725 25.515 23.5397 25.1147 23.6841 24.7078C23.8284 24.3009 24.0975 23.9925 24.4912 23.7825C24.885 23.5725 25.2853 23.5397 25.6922 23.6841C26.0991 23.8284 26.4075 24.0975 26.6175 24.4912L28.98 29.2162C29.19 29.61 29.2228 30.0103 29.0784 30.4172C28.9341 30.8241 28.665 31.1325 28.2712 31.3425ZM9.37125 31.3425C8.9775 31.5525 8.57719 31.5853 8.17031 31.4409C7.76344 31.2966 7.455 31.0275 7.245 30.6337L4.8825 25.9087C4.6725 25.515 4.63969 25.1147 4.78406 24.7078C4.92844 24.3009 5.1975 23.9925 5.59125 23.7825C5.985 23.5725 6.38531 23.5397 6.79219 23.6841C7.19906 23.8284 7.5075 24.0975 7.7175 24.4912L10.08 29.2162C10.29 29.61 10.3228 30.0103 10.1784 30.4172C10.0341 30.8241 9.765 31.1325 9.37125 31.3425ZM8.6625 22.05C6.27375 22.05 4.23281 21.2034 2.53969 19.5103C0.846563 17.8172 0 15.7762 0 13.3875C0 11.2087 0.721875 9.30562 2.16562 7.67812C3.60937 6.05062 5.39437 5.0925 7.52062 4.80375C8.36062 3.3075 9.50906 2.13281 10.9659 1.27969C12.4228 0.426562 14.0175 0 15.75 0C18.1125 0 20.1666 0.754687 21.9122 2.26406C23.6578 3.77344 24.7144 5.65687 25.0819 7.91437C26.8931 8.07187 28.4156 8.82 29.6494 10.1587C30.8831 11.4975 31.5 13.0987 31.5 14.9625C31.5 16.9312 30.8109 18.6047 29.4328 19.9828C28.0547 21.3609 26.3812 22.05 24.4125 22.05H8.6625Z" fill="#003E63"/>
</svg>
